<svg version="1.1" xmlns="http://www.w3.org/2000/svg" style="display: block;" viewBox="0 0 2048 2048" width="512" height="512" preserveAspectRatio="none">
<defs>
	<linearGradient id="Gradient1" gradientUnits="userSpaceOnUse" x1="359.878" y1="1217.21" x2="361.104" y2="1200.08">
		<stop class="stop0" offset="0" stop-opacity="1" stop-color="rgb(11,12,9)"/>
		<stop class="stop1" offset="1" stop-opacity="1" stop-color="rgb(41,36,35)"/>
	</linearGradient>
</defs>
<path transform="translate(0,0)" fill="rgb(24,24,24)" d="M 0 0 L 2048 0 L 2048 2048 L 0 2048 L 0 0 z"/>
<path transform="translate(0,0)" fill="rgb(254,167,31)" d="M 1644.03 688.433 C 1749.39 690.512 1786.03 762.709 1789.56 859.566 C 1792.21 932.489 1775.39 1020.72 1697.15 1047.49 C 1679.53 1053.52 1665.51 1054.78 1647.13 1055.53 C 1612.12 1054.57 1581.85 1048.78 1554.37 1025.02 C 1517.96 993.004 1505.04 943.153 1502.36 896.726 C 1498.12 823.428 1509.89 731.258 1586.61 699.324 C 1606.56 691.02 1622.92 689.45 1644.03 688.433 z"/>
<path transform="translate(0,0)" fill="rgb(24,24,24)" d="M 1634.94 749.327 C 1705.58 741.369 1718.08 807.495 1718.44 862.783 C 1718.76 911.949 1717.74 985.382 1656.26 994.635 C 1574.79 1004.66 1571.43 915.694 1572.9 857.532 C 1573.5 833.432 1575.81 810.976 1585.2 788.475 C 1595.26 764.371 1609.21 753.204 1634.94 749.327 z"/>
<path transform="translate(0,0)" fill="rgb(254,167,31)" d="M 1309.52 689.393 C 1315.15 688.565 1327.95 688.324 1333.8 688.642 C 1378.57 691.072 1401.01 698.06 1431.02 729.982 C 1422.31 741.448 1402.59 768.606 1393.53 777.324 C 1388.1 773.566 1381.85 767.458 1376.27 763.203 C 1361.33 751.54 1343.45 748.788 1325.03 748.775 C 1262.51 748.73 1249.07 814.56 1250.16 865.188 C 1257.23 858.745 1262.82 850.227 1269.34 843.011 C 1303.3 805.387 1377.67 809.799 1413.12 842.859 C 1438.52 866.541 1445.03 900.524 1446.04 933.888 C 1444.6 1001.58 1407.16 1046.86 1338.66 1054.52 C 1242.28 1065.29 1188.56 1004.1 1179.18 912.399 C 1169.34 816.277 1194.66 700.298 1309.52 689.393 z"/>
<path transform="translate(0,0)" fill="rgb(24,24,24)" d="M 1315.95 872.427 C 1330.09 872.923 1341.83 874.736 1353.66 883.847 C 1379.6 903.824 1381.38 951.257 1361.82 976.095 C 1349.97 991.147 1334.83 994.183 1316.94 995.835 C 1301.55 994.845 1288.55 992.95 1276.12 982.309 C 1251.33 961.082 1250.11 914.682 1271.62 890.684 C 1284.11 876.76 1298.23 873.382 1315.95 872.427 z"/>
<path transform="translate(0,0)" fill="rgb(254,254,254)" d="M 663.125 691.881 L 754.27 691.983 L 831.717 918.417 C 846.384 961.305 861.824 1009.93 877.634 1052.01 L 802.777 1052.24 C 797.452 1029.32 783.491 992.369 776.421 968.017 L 756.669 968.08 L 639.428 968.101 C 631.538 996.123 620.926 1024.22 613.114 1052.23 L 540.246 1052.02 C 573.06 950.646 610.843 850.074 644.094 748.77 C 650.274 729.944 657.797 710.889 663.125 691.881 z"/>
<path transform="translate(0,0)" fill="rgb(24,24,24)" d="M 705.24 767.229 C 706.605 767.401 710.071 767.919 710.623 769.445 C 727.059 814.91 741.02 862.157 756.769 907.813 L 710.5 907.91 L 658.581 907.864 C 661.058 901.67 662.917 894.829 665.136 888.501 C 679.143 848.55 690.462 806.83 705.24 767.229 z"/>
<path transform="translate(0,0)" fill="rgb(254,254,254)" d="M 274.136 691.984 C 352.756 691.138 433 691.855 511.711 691.95 C 511.514 711.985 511.466 732.022 511.567 752.058 L 345.08 752.101 L 345.095 835.945 L 490.628 835.973 C 490.428 854.662 490.408 873.351 490.568 892.04 L 345.016 892.107 L 345.036 904.75 L 345.075 991.93 L 515.651 991.991 C 514.565 1007.09 515.355 1035.99 515.317 1052.08 L 274.238 1052.12 C 273.345 1012 274.115 968.781 274.113 928.311 L 274.136 691.984 z"/>
<path transform="translate(0,0)" fill="rgb(254,254,254)" d="M 860.983 691.93 L 1137.12 691.998 L 1137.13 752.039 L 1034.21 752.066 L 1034.17 948.5 L 1034.14 1052.04 L 963.867 1052.11 C 962.948 1018.77 963.735 981.765 963.732 948.199 L 963.848 752.093 L 860.9 752.102 C 860.705 732.045 860.733 711.986 860.983 691.93 z"/>
<path transform="translate(0,0)" fill="rgb(254,254,254)" d="M 516.81 1179.93 L 534.956 1179.98 L 534.944 1244.06 L 519.577 1244.1 L 519.405 1235.25 C 519.395 1225.55 518.984 1215.28 518.76 1205.53 C 515.212 1218.11 510.251 1231.52 505.907 1243.96 L 492.972 1244.07 C 488.91 1231.47 483.636 1217.65 479.122 1205.15 L 479.148 1244.08 L 463.916 1244.15 C 463.168 1224.58 463.779 1199.97 463.789 1180.03 L 482.168 1179.96 C 487.416 1195.05 494.56 1209.47 499.286 1225.27 C 503.628 1211.85 511.497 1193.45 516.81 1179.93 z"/>
<path transform="translate(0,0)" fill="rgb(254,254,254)" d="M 1491.31 1180.36 C 1508.87 1177.57 1525.34 1189.59 1528.03 1207.17 C 1530.71 1224.74 1518.58 1241.14 1500.99 1243.71 C 1483.56 1246.26 1467.33 1234.26 1464.67 1216.85 C 1462.01 1199.43 1473.91 1183.13 1491.31 1180.36 z"/>
<path transform="translate(0,0)" fill="rgb(24,24,24)" d="M 1494.21 1194.23 C 1516.93 1195.14 1519.91 1222.25 1498.85 1229.79 C 1477.03 1229.59 1471.74 1201.39 1494.21 1194.23 z"/>
<path transform="translate(0,0)" fill="rgb(254,254,254)" d="M 1661.01 1179.97 C 1673.55 1179.81 1694.13 1178.35 1704.41 1185.84 C 1721.48 1198.27 1719.68 1219.45 1708.72 1234.85 C 1694.08 1246.42 1679.14 1244.21 1661.03 1244.12 C 1660.7 1222.99 1660.99 1201.16 1661.01 1179.97 z"/>
<path transform="translate(0,0)" fill="rgb(24,24,24)" d="M 1676.51 1192.98 C 1684.01 1193.56 1688.99 1193.3 1695.25 1198.17 C 1705.16 1205.88 1703.27 1216.92 1696.11 1226.07 C 1689.28 1230.63 1684.92 1230.11 1676.56 1230.83 C 1676.14 1218.22 1676.12 1205.59 1676.51 1192.98 z"/>
<path transform="translate(0,0)" fill="rgb(254,254,254)" d="M 1157.19 1179.95 C 1181.75 1179.65 1213.31 1177.22 1213.24 1212.99 C 1213.22 1221.74 1210 1228.09 1204.78 1234.92 C 1190.33 1246.47 1175.04 1244.22 1157.11 1244.11 L 1157.19 1179.95 z"/>
<path transform="translate(0,0)" fill="rgb(24,24,24)" d="M 1173.03 1193.01 C 1178.68 1193.44 1183.96 1193.38 1188.99 1196.34 C 1201.3 1203.57 1200.3 1215.65 1192.51 1226.21 C 1185.41 1230.45 1181.12 1230.08 1172.85 1230.86 C 1172.53 1218.25 1172.59 1205.62 1173.03 1193.01 z"/>
<path transform="translate(0,0)" fill="rgb(254,254,254)" d="M 398.932 1179.97 C 412.387 1179.77 433.413 1178.14 444.077 1187 C 459.116 1199.49 457.768 1220.49 446.635 1234.96 C 432.054 1246.48 417.036 1244.22 399.018 1244.09 L 398.932 1179.97 z"/>
<path transform="translate(0,0)" fill="rgb(24,24,24)" d="M 414.676 1193.03 C 420.922 1193.53 425.875 1193.36 431.4 1196.75 C 443.284 1204.05 441.451 1216.37 433.946 1226.57 C 427.507 1230.38 421.828 1230.17 414.39 1230.77 C 414.138 1218.19 414.233 1205.6 414.676 1193.03 z"/>
<path transform="translate(0,0)" fill="rgb(254,254,254)" d="M 1407.97 1179.95 C 1421.5 1179.76 1442.31 1177.78 1453.38 1186.45 C 1461.86 1193.09 1454.72 1203.12 1448.75 1208.58 L 1447.54 1209.67 C 1450.08 1217.68 1461.28 1214.3 1456.41 1233.64 C 1447.23 1248.2 1423.41 1244.31 1407.9 1244.07 C 1407.81 1222.7 1407.83 1201.32 1407.97 1179.95 z"/>
<path transform="translate(0,0)" fill="rgb(24,24,24)" d="M 1423.13 1216.1 C 1432.74 1216.04 1446.43 1215.06 1440.29 1229.47 C 1432.98 1231.58 1430.77 1231.16 1423.15 1231.17 L 1423.13 1216.1 z"/>
<path transform="translate(0,0)" fill="rgb(24,24,24)" d="M 1423.22 1192.84 C 1425.8 1192.83 1428.39 1192.86 1430.98 1192.92 C 1435.83 1193.07 1436.93 1193.21 1439.98 1196.44 C 1440.47 1199.93 1440.01 1200.21 1438.65 1203.44 C 1432.95 1204.24 1428.98 1205.67 1424.28 1203.23 C 1422.37 1199.93 1423.01 1196.74 1423.22 1192.84 z"/>
<path transform="translate(0,0)" fill="rgb(254,254,254)" d="M 572.047 1179.99 L 587.453 1179.86 C 594.709 1192.37 605.264 1207.62 613.265 1220.41 C 612.676 1207.18 612.979 1193.26 613.06 1179.95 L 628.346 1179.96 C 628.385 1196.41 629.398 1229.46 627.91 1244.24 L 612.623 1244.16 C 605.589 1231.25 595.496 1218.03 587.778 1204.51 C 587.564 1217.72 587.49 1230.94 587.557 1244.15 L 572.049 1244.13 C 571.938 1222.75 571.937 1201.37 572.047 1179.99 z"/>
<path transform="translate(0,0)" fill="rgb(254,254,254)" d="M 1071.09 1179.97 L 1086.45 1179.93 C 1094.15 1191.77 1106.23 1209.48 1111.96 1221.84 C 1111.13 1210.48 1111.8 1191.93 1111.89 1180.02 L 1127.33 1179.97 C 1126.93 1200.56 1127.18 1222.23 1127.13 1242.89 L 1126.32 1243.7 C 1122.79 1244.79 1115.7 1244.17 1111.7 1244.03 C 1103.34 1230.64 1094.75 1217.4 1085.95 1204.3 C 1086.82 1215.51 1086.4 1232.52 1086.43 1244.17 L 1071.12 1244.13 L 1071.09 1179.97 z"/>
<path transform="translate(0,0)" fill="rgb(254,254,254)" d="M 1602.65 1179.96 C 1623.27 1179.71 1644.94 1175.17 1651.55 1199.39 C 1651 1201.61 1650.4 1203.81 1649.74 1205.99 C 1646.46 1216.41 1645.25 1213.38 1638.63 1218.58 C 1638.57 1229.34 1652.35 1235.28 1649.42 1243.01 C 1646.23 1244.93 1642.58 1244.27 1638.75 1244.11 C 1629.12 1242.89 1628.85 1226.14 1619.71 1221.27 C 1617.22 1223.95 1618.05 1239.25 1618.07 1244.03 L 1602.8 1244.23 C 1602.56 1222.81 1602.51 1201.39 1602.65 1179.96 z"/>
<path transform="translate(0,0)" fill="rgb(24,24,24)" d="M 1618.23 1192.94 C 1628.66 1192.99 1639.7 1193.17 1633.17 1207.36 C 1627.62 1208.59 1623.65 1210.63 1618.91 1207.1 C 1617.13 1203.15 1617.99 1197.53 1618.23 1192.94 z"/>
<path transform="translate(0,0)" fill="rgb(254,254,254)" d="M 681.024 1180.25 C 690.985 1180.1 700.143 1183.09 702.123 1193.94 C 698.484 1199.84 686.916 1192.02 679.045 1194.13 L 678.347 1195.71 C 680.406 1201.59 690.66 1211.53 695.616 1215.47 C 699.728 1216.32 699.542 1214.76 704.315 1211.97 C 708.869 1209.31 713.463 1210.04 718.918 1210.1 L 708.666 1227.64 L 718.07 1237.73 L 724.177 1244.04 C 718.669 1244.02 709.87 1244.71 705.054 1243.24 C 704.401 1242.48 700.918 1238.33 700.008 1238.68 C 679.137 1246.64 647.524 1246.74 659.067 1214.52 C 675.774 1200.21 660.759 1204.55 666.578 1187.58 C 667.799 1184.01 676.803 1181.02 681.024 1180.25 z"/>
<path transform="translate(0,0)" fill="rgb(24,24,24)" d="M 675.514 1215.35 C 679.337 1216.02 689.208 1223.92 688.651 1228.17 L 685.789 1229.82 C 673.731 1232.66 666.05 1226.12 675.514 1215.35 z"/>
<path transform="translate(0,0)" fill="rgb(254,254,254)" d="M 1342.66 1180.02 L 1358.02 1179.9 L 1358.01 1203.9 L 1381.81 1203.85 L 1381.75 1179.94 L 1397.02 1179.99 C 1397.07 1188.59 1398.25 1239.91 1395.77 1244.06 L 1381.83 1244.06 C 1381.71 1235.07 1381.79 1225.95 1381.79 1216.95 L 1358.14 1216.84 L 1358.1 1244.13 L 1342.67 1244.05 L 1342.66 1180.02 z"/>
<path transform="translate(0,0)" fill="rgb(254,254,254)" d="M 996.801 1179.96 L 1011.99 1179.98 C 1012.03 1187.95 1013.2 1240.93 1010.76 1244.11 L 996.691 1244.06 C 996.515 1235.21 996.702 1225.87 996.734 1216.99 L 973.064 1216.83 L 973.004 1244.09 L 957.708 1244.01 L 957.695 1179.99 L 973.027 1179.96 L 973.008 1203.92 L 996.707 1203.88 C 996.663 1195.9 996.694 1187.93 996.801 1179.96 z"/>
<path transform="translate(0,0)" fill="rgb(254,254,254)" d="M 1240.53 1179.98 C 1246.24 1179.79 1252.63 1179.96 1258.4 1180 C 1266.26 1200.98 1273.3 1222.88 1281.09 1244.07 L 1264.1 1244.01 C 1263.31 1239.84 1263.25 1233.53 1259.04 1232.25 C 1251.99 1232.01 1244.31 1232.29 1237.2 1232.42 L 1234.25 1244.26 L 1217.79 1244 C 1225.57 1222.73 1233.15 1201.39 1240.53 1179.98 z"/>
<path transform="translate(0,0)" fill="rgb(24,24,24)" d="M 1249.07 1198.57 C 1252.32 1201.67 1256.45 1214.97 1254.84 1219.47 L 1251.13 1219.87 C 1248.13 1219.92 1247.4 1219.96 1244.34 1219.51 L 1243.14 1217.74 C 1242.94 1213.07 1247.16 1204.12 1249.07 1198.57 z"/>
<path transform="translate(0,0)" fill="rgb(254,254,254)" d="M 351.606 1179.91 L 369.497 1179.85 L 391.999 1244.03 L 375.447 1244.11 C 374.452 1239.48 374.183 1234.64 370.884 1232.2 C 362.974 1232.05 356.292 1232.15 348.383 1232.48 L 345.52 1244.19 L 328.786 1243.96 C 336.312 1225.99 345.249 1198.53 351.606 1179.91 z"/>
<path transform="translate(0,0)" fill="url(#Gradient1)" d="M 360.363 1198.6 C 363.205 1201.06 367.779 1215.71 366.344 1219.44 L 363.25 1219.57 C 358.699 1219.9 356.491 1221.16 354.317 1217.16 C 354.238 1212.62 358.456 1203.89 360.363 1198.6 z"/>
<path transform="translate(0,0)" fill="rgb(254,254,254)" d="M 1555.09 1179.94 L 1573.21 1179.85 C 1579.99 1200.51 1588.4 1223.58 1595.95 1244.04 L 1578.85 1244.1 C 1578.17 1239.66 1578.02 1234.73 1574.86 1232.22 L 1551.87 1232.23 L 1549.32 1244.19 L 1532.87 1243.95 C 1539.68 1224.36 1549.57 1199.26 1555.09 1179.94 z"/>
<path transform="translate(0,0)" fill="rgb(24,24,24)" d="M 1563.84 1198.44 C 1566.68 1200.95 1571.66 1215.53 1569.45 1219.47 L 1565.64 1219.84 C 1562.7 1219.93 1561.85 1220.15 1559.02 1219.32 L 1558.03 1217.45 C 1558.09 1212.69 1562 1204.14 1563.84 1198.44 z"/>
<path transform="translate(0,0)" fill="rgb(254,254,254)" d="M 784.34 1179.93 L 802.87 1179.98 C 794.19 1189.81 787.095 1201.21 777.875 1210.78 C 782.824 1217.44 788.155 1224.11 793.269 1230.66 C 796.513 1235.4 800.118 1239.58 803.789 1243.98 L 784.366 1244.14 C 777.825 1234.05 770.325 1225.74 763.671 1214.77 C 764.033 1224.13 763.807 1234.66 763.815 1244.11 L 748.21 1244.12 C 747.871 1223.08 748.153 1201.1 748.158 1180 L 763.957 1179.93 C 763.656 1190.09 763.92 1198.73 763.073 1209.12 C 769.241 1199.88 777.646 1189.01 784.34 1179.93 z"/>
<path transform="translate(0,0)" fill="rgb(254,254,254)" d="M 915.296 1180.22 C 932.988 1179.08 941.808 1187.04 948.4 1202.45 C 943.103 1202.08 937.285 1202.25 931.937 1202.28 C 931.693 1202.05 931.448 1201.83 931.204 1201.6 L 929.962 1200.5 C 921.762 1193.12 910.997 1191.31 905.237 1202.53 C 902.513 1207.91 902.141 1214.19 904.208 1219.86 C 905.876 1224.33 907.928 1226.43 912.2 1228.66 C 922.41 1234 927.702 1222.74 933.75 1221.83 L 948.577 1221.89 C 932.705 1257.58 889.98 1248.42 887.004 1211.97 C 885.61 1194.88 898.622 1182.92 915.296 1180.22 z"/>
<path transform="translate(0,0)" fill="rgb(254,254,254)" d="M 1306.24 1180.24 C 1316.26 1179.85 1333.44 1184.61 1331.42 1197.42 C 1329.02 1199.13 1319.52 1199.83 1317.42 1198.51 C 1312.64 1195.5 1309.32 1188.78 1302.85 1196.77 C 1304.37 1208.24 1354.32 1212.8 1323.12 1241.4 C 1319.05 1242.33 1314.15 1243.04 1309.98 1243.75 C 1294.66 1241.55 1290.32 1239.48 1285.96 1224.27 C 1288.47 1224.25 1296.4 1224.12 1298.33 1224.83 C 1307.22 1228.12 1304.68 1231.3 1313.67 1229.94 C 1316.8 1227.56 1315.93 1229.03 1316.93 1225.76 C 1315.69 1222.4 1310.12 1218.82 1306.83 1217.93 C 1281.93 1211.14 1276.16 1185.1 1306.24 1180.24 z"/>
<path transform="translate(0,0)" fill="rgb(254,254,254)" d="M 1022.85 1179.98 C 1035.63 1179.85 1048.4 1179.87 1061.17 1180.03 L 1061.03 1192.86 C 1052.73 1193.12 1045.83 1190.83 1039.58 1194.23 C 1037.29 1198.25 1038.11 1198.53 1038.01 1203.88 L 1058.75 1204.04 L 1058.51 1216.15 C 1053.08 1216.15 1042.64 1214.77 1038.56 1217.38 L 1038.03 1220.75 C 1037.77 1228.43 1037.53 1232.28 1047.37 1231.64 C 1051.89 1231.34 1056.57 1231.34 1061.12 1231.37 L 1061.18 1244.07 L 1022.93 1244.06 C 1022.77 1222.7 1022.74 1201.34 1022.85 1179.98 z"/>
<path transform="translate(0,0)" fill="rgb(254,254,254)" d="M 833.325 1179.98 C 849.584 1179.89 865.844 1179.91 882.102 1180.05 L 881.959 1192.96 L 865.455 1192.77 L 865.327 1231.25 L 865.653 1244.04 L 850.048 1244.08 L 850.008 1192.98 L 833.414 1192.69 C 833.519 1188.6 833.37 1184.1 833.325 1179.98 z"/>
<path transform="translate(0,0)" fill="rgb(254,254,254)" d="M 810.413 1179.93 L 825.924 1179.99 L 826.005 1244.04 L 810.469 1244.1 C 810.261 1222.71 810.243 1201.32 810.413 1179.93 z"/>
<path transform="translate(0,0)" fill="rgb(254,254,254)" d="M 545.884 1179.93 L 561.063 1180 L 561.085 1244.07 L 545.967 1244.09 C 545.785 1222.7 545.757 1201.32 545.884 1179.93 z"/>
</svg>